<?xml version="1.0" encoding="utf-8"?>
<!-- Generator: Adobe Illustrator 20.0.0, SVG Export Plug-In . SVG Version: 6.00 Build 0)  -->
<svg version="1.1" id="Layer_1" xmlns="http://www.w3.org/2000/svg" xmlns:xlink="http://www.w3.org/1999/xlink" x="0px" y="0px"
	 viewBox="0 0 240 200" enable-background="new 0 0 240 200" xml:space="preserve">
<g id="Evro_x5F_Money">
	<g>
		<g>
			<path fill="#FFFFFF" d="M219,99c0,54.124-43.876,98-98,98s-98-43.876-98-98S66.876,1,121,1S219,44.876,219,99"/>
			
				<circle fill="none" stroke="#000000" stroke-width="4" stroke-linejoin="round" stroke-miterlimit="10" cx="121" cy="99" r="98"/>
			<path fill="#FFFFFF" d="M147.627,121.627c-12.497,12.497-32.758,12.497-45.255,0s-12.497-32.758,0-45.255s32.758-12.497,45.255,0
				"/>
			<path fill="none" stroke="#000000" stroke-width="4" stroke-linecap="round" stroke-linejoin="round" stroke-miterlimit="10" d="
				M147.627,121.627c-12.497,12.497-32.758,12.497-45.255,0s-12.497-32.758,0-45.255s32.758-12.497,45.255,0"/>
			
				<line fill="none" stroke="#000000" stroke-width="4" stroke-linecap="round" stroke-linejoin="round" stroke-miterlimit="10" x1="131" y1="95" x2="85" y2="95"/>
			
				<line fill="none" stroke="#000000" stroke-width="4" stroke-linecap="round" stroke-linejoin="round" stroke-miterlimit="10" x1="127" y1="103" x2="81" y2="103"/>
		</g>
	</g>
</g>
</svg>