<svg width="16" height="16" viewBox="0 0 16 16" fill="none" xmlns="http://www.w3.org/2000/svg">
<g clip-path="url(#clip0_1_1094)">
<mask id="mask0_1_1094" style="mask-type:luminance" maskUnits="userSpaceOnUse" x="0" y="0" width="16" height="16">
<path d="M0 0H16V16H0V0Z" fill="white"/>
</mask>
<g mask="url(#mask0_1_1094)">
<path fill-rule="evenodd" clip-rule="evenodd" d="M11.39 2.503C10.375 1.86851 9.20396 1.52789 8.007 1.519C6.32964 1.50237 4.71118 2.13685 3.492 3.289L3.497 2.73C3.49873 2.53108 3.42136 2.33963 3.28193 2.19776C3.1425 2.05589 2.95242 1.97522 2.7535 1.9735C2.65501 1.97264 2.55732 1.9912 2.466 2.0281C2.37468 2.065 2.29152 2.11953 2.22127 2.18857C2.0794 2.328 1.99873 2.51808 1.997 2.717L1.975 5.217C1.9734 5.41574 2.05076 5.60699 2.19007 5.74874C2.32938 5.89049 2.51926 5.97115 2.718 5.973L5.215 5.995C5.31349 5.99585 5.41119 5.9773 5.50251 5.94039C5.59383 5.90349 5.67699 5.84896 5.74724 5.77992C5.81748 5.71088 5.87345 5.62868 5.91193 5.53801C5.95041 5.44735 5.97065 5.34999 5.9715 5.2515C5.97236 5.153 5.9538 5.05531 5.9169 4.96399C5.88 4.87267 5.82547 4.78951 5.75643 4.71926C5.68739 4.64901 5.60519 4.59305 5.51452 4.55457C5.42385 4.51609 5.32649 4.49585 5.228 4.495L4.411 4.488C4.87998 4.01642 5.43861 3.6435 6.05397 3.3912C6.66933 3.13891 7.32897 3.01236 7.994 3.019C8.91459 3.02529 9.81536 3.28701 10.596 3.775C10.7647 3.88042 10.9683 3.91452 11.1621 3.86979C11.356 3.82506 11.5241 3.70517 11.6295 3.5365C11.7349 3.36782 11.769 3.16417 11.7243 2.97035C11.6796 2.77653 11.5587 2.60842 11.39 2.503ZM2.293 11.219C1.70196 10.1779 1.41118 8.99339 1.453 7.797C1.45648 7.6985 1.47933 7.60166 1.52023 7.512C1.56114 7.42234 1.61931 7.34161 1.69141 7.27443C1.76352 7.20724 1.84815 7.15492 1.94047 7.12044C2.0328 7.08597 2.13101 7.07002 2.2295 7.0735C2.32799 7.07698 2.42484 7.09982 2.5145 7.14073C2.60416 7.18163 2.68489 7.2398 2.75207 7.3119C2.81925 7.38401 2.87158 7.46864 2.90605 7.56097C2.94053 7.65329 2.95648 7.7515 2.953 7.85C2.91994 8.76964 3.14363 9.68032 3.599 10.48C3.92565 11.0596 4.36505 11.5679 4.89128 11.9749C5.41752 12.382 6.01993 12.6795 6.663 12.85L6.26 12.138C6.16214 11.9648 6.13708 11.7598 6.19034 11.5682C6.2436 11.3765 6.37082 11.2139 6.544 11.116C6.71719 11.0181 6.92216 10.9931 7.11382 11.0463C7.30548 11.0996 7.46814 11.2268 7.566 11.4L8.795 13.573C8.89296 13.7461 8.91818 13.9509 8.86511 14.1426C8.81204 14.3342 8.68503 14.497 8.512 14.595L6.336 15.825C6.2502 15.8758 6.15513 15.909 6.05635 15.9227C5.95756 15.9363 5.85705 15.9301 5.76069 15.9044C5.66433 15.8787 5.57406 15.8341 5.49516 15.7731C5.41625 15.7121 5.3503 15.636 5.30116 15.5493C5.25203 15.4625 5.22069 15.3668 5.20898 15.2678C5.19727 15.1687 5.20543 15.0684 5.23297 14.9725C5.26052 14.8767 5.3069 14.7873 5.36941 14.7096C5.43191 14.6319 5.50929 14.5674 5.597 14.52L6.084 14.245C4.47661 13.7649 3.11702 12.6802 2.293 11.219ZM13.551 11.318C12.9448 12.3503 12.0641 13.1942 11.007 13.756C10.8313 13.8494 10.6257 13.8691 10.4354 13.8109C10.2452 13.7526 10.0859 13.6212 9.9925 13.4455C9.89915 13.2698 9.87941 13.0642 9.93764 12.8739C9.99587 12.6837 10.1273 12.5244 10.303 12.431C11.1156 11.9989 11.7923 11.3498 12.258 10.556C12.5965 9.98335 12.8168 9.34875 12.9061 8.68958C12.9955 8.03042 12.9519 7.36005 12.778 6.718L12.363 7.423C12.3133 7.5085 12.2472 7.58333 12.1685 7.64318C12.0897 7.70303 12 7.74672 11.9043 7.77174C11.8086 7.79675 11.7089 7.8026 11.611 7.78894C11.513 7.77528 11.4187 7.74238 11.3336 7.69214C11.2484 7.6419 11.174 7.57531 11.1146 7.4962C11.0553 7.41709 11.0122 7.32703 10.9878 7.23119C10.9634 7.13535 10.9581 7.03564 10.9724 6.93778C10.9867 6.83992 11.0202 6.74586 11.071 6.661L12.338 4.511C12.388 4.42608 12.4541 4.35184 12.5328 4.29251C12.6115 4.23318 12.701 4.18993 12.7964 4.16523C12.8918 4.14053 12.9911 4.13486 13.0886 4.14855C13.1862 4.16223 13.2801 4.19501 13.365 4.245L15.519 5.513C15.6039 5.56296 15.6781 5.62916 15.7374 5.70782C15.7968 5.78647 15.84 5.87604 15.8647 5.97141C15.8894 6.06677 15.8951 6.16607 15.8814 6.26363C15.8677 6.36119 15.835 6.4551 15.785 6.54C15.735 6.6249 15.6688 6.69912 15.5902 6.75844C15.5115 6.81775 15.422 6.86099 15.3266 6.88569C15.2312 6.91039 15.1319 6.91607 15.0344 6.90239C14.9368 6.88872 14.8429 6.85596 14.758 6.806L14.275 6.522C14.6636 8.15411 14.4041 9.87333 13.551 11.318Z" fill="#5E81F8"/>
</g>
</g>
<defs>
<clipPath id="clip0_1_1094">
<rect width="16" height="16" fill="white"/>
</clipPath>
</defs>
</svg>
