<svg width="16" height="16" viewBox="0 0 16 16" fill="none" xmlns="http://www.w3.org/2000/svg">
<g clip-path="url(#clip0_1_418)">
<path fill-rule="evenodd" clip-rule="evenodd" d="M6.836 3.202L1.74 5.386C1.66876 5.41652 1.60804 5.46728 1.56536 5.53199C1.52269 5.59669 1.49995 5.67249 1.49995 5.75C1.49995 5.82751 1.52269 5.90331 1.56536 5.96801C1.60804 6.03272 1.66876 6.08348 1.74 6.114L6.836 8.298C7.14726 8.43135 7.48237 8.50007 7.821 8.5H8.179C8.51762 8.50007 8.85274 8.43135 9.164 8.298L14.26 6.114C14.3312 6.08348 14.392 6.03272 14.4346 5.96801C14.4773 5.90331 14.5001 5.82751 14.5001 5.75C14.5001 5.67249 14.4773 5.59669 14.4346 5.53199C14.392 5.46728 14.3312 5.41652 14.26 5.386L9.164 3.202C8.85274 3.06865 8.51762 2.99993 8.179 3H7.821C7.48237 2.99993 7.14726 3.06865 6.836 3.202ZM1.5 7.642L3 8.286V11.514C3.00001 11.8855 3.10349 12.2496 3.29884 12.5656C3.49419 12.8816 3.77369 13.1369 4.106 13.303L4.912 13.706C5.87258 14.1862 6.93076 14.4389 8.00465 14.4446C9.07855 14.4504 10.1394 14.2089 11.105 13.739L12.014 13.297C12.3512 13.1329 12.6355 12.8773 12.8345 12.5594C13.0334 12.2415 13.1389 11.874 13.139 11.499V8.226L14.851 7.492C15.1916 7.34563 15.4819 7.10261 15.6858 6.79299C15.8898 6.48337 15.9985 6.12075 15.9985 5.75C15.9985 5.37925 15.8898 5.01663 15.6858 4.70701C15.4819 4.39739 15.1916 4.15437 14.851 4.008L9.755 1.823C9.25696 1.60971 8.72079 1.49982 8.179 1.5H7.821C7.27921 1.49982 6.74304 1.60971 6.245 1.823L1.15 4.008C0.808892 4.15399 0.518114 4.39685 0.313697 4.7065C0.109281 5.01615 0.000209809 5.37896 0 5.75L0 10.25C0 10.4489 0.0790176 10.6397 0.21967 10.7803C0.360322 10.921 0.551088 11 0.75 11C0.948912 11 1.13968 10.921 1.28033 10.7803C1.42098 10.6397 1.5 10.4489 1.5 10.25V7.642ZM4.5 11.514V8.929L6.245 9.677C6.74304 9.89029 7.27921 10.0002 7.821 10H8.179C8.72079 10.0002 9.25696 9.89029 9.755 9.677L11.639 8.869V11.499C11.639 11.5929 11.6126 11.6849 11.5627 11.7645C11.5128 11.8441 11.4415 11.9081 11.357 11.949L10.448 12.391C9.68932 12.7599 8.85595 12.9493 8.01235 12.9447C7.16875 12.94 6.33754 12.7413 5.583 12.364L4.776 11.961C4.69305 11.9194 4.62331 11.8556 4.57456 11.7767C4.52582 11.6977 4.5 11.6068 4.5 11.514Z" fill="#5E81F8"/>
</g>
<defs>
<clipPath id="clip0_1_418">
<rect width="16" height="16" fill="white"/>
</clipPath>
</defs>
</svg>
