<svg width="16" height="16" viewBox="0 0 16 16" fill="none" xmlns="http://www.w3.org/2000/svg">
<path fill-rule="evenodd" clip-rule="evenodd" d="M8.581 9.298L9.357 9.441C9.8624 9.53546 10.3824 9.5174 10.88 9.38813C11.3777 9.25885 11.8407 9.02152 12.2362 8.69302C12.6318 8.36451 12.95 7.9529 13.1685 7.48746C13.3869 7.02201 13.5001 6.51415 13.5 6C13.5 5.882 13.49 5.764 13.473 5.648L12.083 7.038C11.9368 7.18441 11.7631 7.30058 11.572 7.37985C11.3808 7.45912 11.1759 7.49995 10.969 7.5C10.3141 7.49973 9.68609 7.23939 9.22309 6.7762C8.76009 6.31301 8.5 5.68491 8.5 5.03C8.5 4.613 8.666 4.213 8.961 3.918L10.351 2.528C10.2348 2.51009 10.1175 2.50073 10 2.5C9.48585 2.49992 8.97799 2.61311 8.51254 2.83153C8.0471 3.04996 7.63549 3.36825 7.30698 3.76377C6.97848 4.15929 6.74115 4.62233 6.61187 5.11996C6.4826 5.6176 6.46454 6.1376 6.559 6.643L6.702 7.419L2.889 11.232C2.64915 11.4831 2.51708 11.818 2.52104 12.1652C2.525 12.5124 2.66469 12.8443 2.91021 13.0898C3.15573 13.3353 3.48759 13.475 3.83478 13.479C4.18198 13.4829 4.51694 13.3509 4.768 13.111L8.58 9.298H8.581ZM12.398 2.511C12.4735 2.32102 12.473 2.10924 12.3964 1.91967C12.3199 1.73009 12.1733 1.57729 11.987 1.493C11.87 1.432 11.014 1 10 1C9.26574 0.999909 8.54046 1.16154 7.87572 1.4734C7.21097 1.78527 6.62308 2.23972 6.1538 2.80445C5.68452 3.36919 5.34539 4.03035 5.16049 4.74095C4.9756 5.45156 4.94948 6.19416 5.084 6.916L1.828 10.172C1.29757 10.7024 0.999573 11.4219 0.999573 12.172C0.999573 12.9221 1.29757 13.6416 1.828 14.172C2.35843 14.7024 3.07785 15.0004 3.828 15.0004C4.57815 15.0004 5.29757 14.7024 5.828 14.172L9.084 10.916C9.80584 11.0505 10.5484 11.0244 11.259 10.8395C11.9697 10.6546 12.6308 10.3155 13.1955 9.8462C13.7603 9.37692 14.2147 8.78903 14.5266 8.12428C14.8385 7.45954 15.0001 6.73426 15 6C15 4.986 14.568 4.13 14.507 4.013L14.493 3.986C14.4367 3.87334 14.3544 3.77567 14.253 3.70104C14.1515 3.62641 14.0338 3.57695 13.9095 3.55673C13.7852 3.53652 13.6578 3.54613 13.5379 3.58477C13.4181 3.62341 13.3091 3.68999 13.22 3.779L11.022 5.979C11.015 5.98583 11.0067 5.9912 10.9976 5.99481C10.9885 5.99841 10.9788 6.00018 10.969 6C10.7119 5.99973 10.4654 5.89742 10.2838 5.71554C10.1021 5.53366 10 5.28709 10 5.03C10 5.011 10.008 4.992 10.022 4.978L12.22 2.78C12.2973 2.7032 12.3579 2.61228 12.398 2.511Z" fill="#5E81F8"/>
</svg>
